Coordinates
version=1
nRows=43
nColumns=12
inDegrees=yes

Units are S.I. units (second, meters, Newtons, ...)
Angles are in degrees

endheader
time	SC_y	SC_z	SC_x	AC_y	AC_z	AC_x	GH_y	GH_z	GH_yy	EL_x	PS_y
       0.0              -39.28          27.14          57.87          36.11         -1.855            5.6          169.3          45.58          149.6          69.61          155.2
   0.02921              -39.28          27.14          57.86          36.11         -1.857          5.602          169.2          45.58          149.6          69.62          155.2
   0.05841              -39.27          27.14          57.86          36.11         -1.858          5.603          169.2          45.59          149.5          69.63          155.1
   0.08762              -39.27          27.13          57.86          36.11          -1.86          5.605          169.2          45.59          149.5          69.64          155.1
    0.1168              -39.27          27.13          57.86           36.1         -1.861          5.606          169.1          45.59          149.5          69.65          155.1
     0.146              -39.27          27.13          57.86           36.1         -1.863          5.608          169.1           45.6          149.5          69.66          155.1
    0.1752              -39.27          27.12          57.86           36.1         -1.865           5.61          169.0           45.6          149.4          69.67          155.1
    0.2044              -39.27          27.12          57.86           36.1         -1.867          5.611          168.9           45.6          149.4          69.68          155.1
    0.2336              -39.27          27.11          57.85           36.1         -1.869          5.613          168.9          45.61          149.3           69.7          155.1
    0.2629              -39.27          27.11          57.85           36.1         -1.871          5.616          168.8          45.61          149.3          69.71          155.1
    0.2921              -39.27           27.1          57.85           36.1         -1.873          5.618          168.7          45.62          149.2          69.73          155.1
    0.3213              -39.27           27.1          57.85          36.09         -1.876           5.62          168.7          45.62          149.2          69.74          155.1
    0.3505              -39.26          27.09          57.84          36.09         -1.879          5.623          168.6          45.63          149.1          69.76          155.0
    0.3797              -39.26          27.08          57.84          36.09         -1.882          5.626          168.5          45.63          149.1          69.78          155.0
    0.4089              -39.26          27.08          57.84          36.09         -1.885          5.629          168.4          45.64          149.0           69.8          155.0
    0.4381              -39.26          27.07          57.84          36.09         -1.889          5.633          168.3          45.65          148.9          69.83          155.0
    0.4673              -39.26          27.06          57.83          36.08         -1.892          5.636          168.2          45.65          148.9          69.85          155.0
    0.4965              -39.25          27.05          57.83          36.08         -1.897           5.64          168.0          45.66          148.8          69.88          155.0
    0.5257              -39.25          27.04          57.82          36.08         -1.901          5.645          167.9          45.67          148.7          69.91          154.9
    0.5549              -39.25          27.03          57.82          36.07         -1.906           5.65          167.7          45.68          148.6          69.94          154.9
    0.5841              -39.25          27.02          57.81          36.07         -1.912          5.655          167.6          45.69          148.5          69.98          154.9
    0.6133              -39.24           27.0          57.81          36.07         -1.918          5.661          167.4          45.71          148.4          70.02          154.9
    0.6425              -39.24          26.99           57.8          36.06         -1.924          5.667          167.2          45.72          148.2          70.06          154.8
    0.6717              -39.23          26.97           57.8          36.06         -1.932          5.675          167.0          45.73          148.1          70.11          154.8
    0.7009              -39.23          26.95          57.79          36.05          -1.94          5.683          166.7          45.75          147.9          70.17          154.8
    0.7301              -39.22          26.93          57.78          36.05         -1.949          5.691          166.4          45.77          147.7          70.23          154.7
    0.7593              -39.22          26.91          57.77          36.04         -1.959          5.701          166.1          45.79          147.5          70.29          154.7
    0.7886              -39.21          26.88          57.76          36.03         -1.971          5.713          165.8          45.81          147.3          70.37          154.6
    0.8178              -39.21          26.85          57.75          36.02         -1.984          5.725          165.4          45.84          147.1          70.46          154.5
     0.847               -39.2          26.82          57.73          36.01         -1.999           5.74          164.9          45.87          146.8          70.55          154.5
    0.8762              -39.19          26.78          57.72           36.0         -2.016          5.756          164.4           45.9          146.4          70.66          154.4
    0.9054              -39.18          26.74           57.7          35.99         -2.035          5.775          163.8          45.94          146.0          70.79          154.3
    0.9346              -39.17          26.69          57.68          35.98         -2.058          5.797          163.2          45.98          145.6          70.94          154.2
    0.9638              -39.15          26.63          57.65          35.96         -2.084          5.822          162.4          46.04          145.1          71.11          154.1
     0.993              -39.13          26.56          57.63          35.94         -2.114          5.851          161.5           46.1          144.5          71.31          153.9
     1.022              -39.11          26.48          57.59          35.92          -2.15          5.886          160.4          46.17          143.8          71.55          153.8
     1.051              -39.09          26.38          57.55          35.89         -2.193          5.928          159.1          46.25          142.9          71.83          153.6
     1.081              -39.06          26.26          57.51          35.85         -2.244          5.977          157.5          46.36          141.9          72.17          153.3
      1.11              -39.03          26.12          57.45          35.81         -2.306          6.037          155.7          46.48          140.7          72.58          153.0
     1.139              -38.99          25.95          57.38          35.76         -2.381          6.111          153.4          46.63          139.2          73.08          152.7
     1.168              -38.94          25.74          57.29           35.7         -2.474          6.201          150.6          46.82          137.3          73.69          152.2
     1.197              -38.87          25.47          57.18          35.63         -2.591          6.314          147.1          47.05          135.0          74.46          151.7
     1.227              -38.79          25.14          57.05          35.53         -2.737          6.457          142.6          47.34          132.1          75.43          151.0
